<?xml version="1.0" encoding="UTF-8" standalone="no"?>
<!-- Created with Inkscape (http://www.inkscape.org/) -->

<svg
   xmlns:dc="http://purl.org/dc/elements/1.1/"
   xmlns:cc="http://creativecommons.org/ns#"
   xmlns:rdf="http://www.w3.org/1999/02/22-rdf-syntax-ns#"
   xmlns:svg="http://www.w3.org/2000/svg"
   xmlns="http://www.w3.org/2000/svg"
   xmlns:sodipodi="http://sodipodi.sourceforge.net/DTD/sodipodi-0.dtd"
   xmlns:inkscape="http://www.inkscape.org/namespaces/inkscape"
   width="63.410805mm"
   height="63.368309mm"
   viewBox="0 0 224.68395 224.53338"
   id="svg2"
   version="1.1"
   inkscape:version="0.91 r13725"
   sodipodi:docname="logo.svg">
  <defs
     id="defs4" />
  <sodipodi:namedview
     id="base"
     pagecolor="#ffffff"
     bordercolor="#666666"
     borderopacity="1.0"
     inkscape:pageopacity="0.0"
     inkscape:pageshadow="2"
     inkscape:zoom="1.0870648"
     inkscape:cx="212.38915"
     inkscape:cy="-105.0901"
     inkscape:document-units="px"
     inkscape:current-layer="layer1"
     showgrid="false"
     fit-margin-top="0"
     fit-margin-left="0"
     fit-margin-right="0"
     fit-margin-bottom="0"
     inkscape:window-width="1866"
     inkscape:window-height="1035"
     inkscape:window-x="0"
     inkscape:window-y="1"
     inkscape:window-maximized="1" />
  <metadata
     id="metadata7">
    <rdf:RDF>
      <cc:Work
         rdf:about="">
        <dc:format>image/svg+xml</dc:format>
        <dc:type
           rdf:resource="http://purl.org/dc/dcmitype/StillImage" />
        <dc:title></dc:title>
      </cc:Work>
    </rdf:RDF>
  </metadata>
  <g
     inkscape:label="Layer 1"
     inkscape:groupmode="layer"
     id="layer1"
     transform="translate(-301.94101,-351.30136)">
    <g
       id="g4157">
      <path
         inkscape:connector-curvature="0"
         id="path4153"
         d="m 413.95877,431.42406 111.30891,-38.63616 -0.91991,134.30663 -109.4691,43.23569 z"
         style="fill:#e6be54;fill-opacity:1;fill-rule:evenodd;stroke:#000000;stroke-width:1px;stroke-linecap:butt;stroke-linejoin:miter;stroke-opacity:1" />
      <path
         inkscape:connector-curvature="0"
         id="path4151"
         d="m 309.08921,393.70781 105.78946,-40.47597 104.86956,40.47597 -105.78946,38.63615 z"
         style="fill:#eec65d;fill-opacity:1;fill-rule:evenodd;stroke:#000000;stroke-width:1px;stroke-linecap:butt;stroke-linejoin:miter;stroke-opacity:1" />
      <path
         sodipodi:nodetypes="ccccc"
         inkscape:connector-curvature="0"
         id="path4149"
         d="m 306.32949,395.54763 106.70937,38.63615 0.91991,136.14644 -108.54919,-45.07551 z"
         style="fill:#d2a543;fill-opacity:1;fill-rule:evenodd;stroke:#000000;stroke-width:1px;stroke-linecap:butt;stroke-linejoin:miter;stroke-opacity:1" />
      <path
         inkscape:connector-curvature="0"
         id="path4155"
         d="m 353.24481,376.22955 27.59725,-10.11899 101.18993,44.1556 2.75972,32.1968 -25.75743,8.27917 -4.59955,-34.03661 z"
         style="fill:#f6e2ae;fill-opacity:1;fill-rule:evenodd;stroke:#000000;stroke-width:1px;stroke-linecap:butt;stroke-linejoin:miter;stroke-opacity:1" />
      <path
         inkscape:connector-curvature="0"
         id="path4147"
         d="m 384.28571,563.89408 c -15.95,-6.73611 -38.9,-16.37519 -51,-21.42019 -12.1,-5.04501 -24.025,-10.18757 -26.5,-11.42792 l -4.5,-2.25519 -0.27585,-66.5 c -0.15172,-36.575 -0.0442,-67.45873 0.23906,-68.63051 0.2832,-1.17178 1.30734,-2.36433 2.27585,-2.65012 0.96852,-0.28579 11.88594,-4.20642 24.26094,-8.71252 12.375,-4.50609 26.1,-9.46265 30.5,-11.01459 4.4,-1.55194 18.54167,-6.6827 31.42592,-11.40169 l 23.42593,-8.57999 21.07407,7.43591 c 68.48033,24.16304 88.83638,31.52631 90.13482,32.60392 1.24939,1.03691 1.41705,10.75415 1.19616,69.32776 l -0.2569,68.12183 -4.5,2.25488 c -2.475,1.24018 -14.85,6.57468 -27.5,11.85443 -12.65,5.27975 -35.375,14.77913 -50.5,21.10973 -15.125,6.3306 -28.175,11.65003 -29,11.82095 -0.825,0.17092 -14.55,-5.20059 -30.5,-11.93669 z m 26.5,-62.88356 0,-66.28026 -16.75,-5.81935 c -9.2125,-3.20065 -24.4,-8.44462 -33.75,-11.65327 -9.35,-3.20865 -24.7625,-8.53068 -34.25,-11.82673 l -17.25,-5.99283 0,62.48168 0,62.48167 5.25,2.3329 c 2.8875,1.28309 21.675,9.18993 41.75,17.57075 20.075,8.38081 40.55,16.97215 45.5,19.09185 4.95,2.1197 9.1125,3.86296 9.25,3.87392 0.1375,0.011 0.25,-29.80619 0.25,-66.26033 z m 26,58.5069 c 5.225,-2.20016 14.225,-5.98949 20,-8.42073 5.775,-2.43124 22.30917,-9.34467 36.74261,-15.36317 l 26.24261,-10.94274 0.007,-63.17521 0.007,-63.17521 -12.75,4.54672 c -7.0125,2.5007 -14.20263,5.01452 -15.97806,5.58626 l -3.22807,1.03954 -0.27193,17.98418 -0.27116,17.98418 -14.4271,5.35477 c -15.32298,5.68729 -18.49537,6.30218 -19.46591,3.77298 -0.33385,-0.86998 -0.60699,-8.56813 -0.60699,-17.10699 0,-14.38284 -0.12877,-15.47428 -1.75,-14.83324 -2.82763,1.11806 -26.45474,9.61021 -30,10.78272 l -3.25,1.07486 0,66.32815 0,66.32814 4.75,-1.88246 c 2.6125,-1.03535 9.025,-3.68259 14.25,-5.88275 z m 33.5,-115.05697 10,-3.79401 0.27818,-14.30563 c 0.21933,-11.2797 0.008,-14.20665 -1,-13.83766 -0.703,0.25738 -5.44068,1.94697 -10.52818,3.75464 l -9.25,3.28668 0,14.36316 c 0,7.89973 0.1125,14.35498 0.25,14.34499 0.1375,-0.01 4.75,-1.72547 10.25,-3.81217 z m -41.20187,-21.31453 c 8.13897,-2.83739 14.43897,-5.49889 14,-5.91445 -0.43897,-0.41557 -4.62313,-2.11002 -9.29813,-3.76546 -4.675,-1.65544 -17.725,-6.39788 -29,-10.53876 -11.275,-4.14089 -28.49913,-10.4627 -38.27585,-14.04849 l -17.77585,-6.51961 -16.09366,5.83293 c -8.85152,3.20812 -15.65823,6.10205 -15.12603,6.43097 0.5322,0.32892 12.84849,4.70148 27.36952,9.71681 26.75276,9.23996 36.18526,12.52257 56.90187,19.8025 6.325,2.22264 11.725,4.06845 12,4.1018 0.275,0.0334 7.15916,-2.26086 15.29813,-5.09824 z m 43.70187,-15.92698 c 0,-0.33441 -8.2125,-3.57699 -18.25,-7.20574 -10.0375,-3.62876 -23.875,-8.67636 -30.75,-11.21691 -6.875,-2.54054 -20.07878,-7.37291 -29.34174,-10.73858 l -16.84173,-6.11941 -8.38237,2.72983 c -4.6103,1.50141 -8.60182,3.08491 -8.87003,3.51889 -0.54482,0.88154 3.01746,2.26992 46.43587,18.09805 16.775,6.11531 34.53525,12.61607 39.46722,14.44613 l 8.96723,3.32739 8.78277,-3.11583 c 4.83053,-1.7137 8.78278,-3.38942 8.78278,-3.72382 z m 25.55556,-8.64873 c 7.37182,-2.59631 13.07506,-5.01233 12.67387,-5.36893 -0.40119,-0.35659 -3.42943,-1.57027 -6.72943,-2.69706 -3.3,-1.12679 -21.975,-7.75291 -41.5,-14.72472 -19.525,-6.97181 -38.425,-13.68374 -42,-14.91539 l -6.5,-2.23937 -12.75,4.57762 c -7.0125,2.5177 -12.74252,4.80506 -12.73337,5.08302 0.009,0.27797 10.47165,4.30659 23.25,8.95248 12.77836,4.6459 33.80837,12.37687 46.73337,17.17994 12.925,4.80307 24.09676,8.76438 24.82613,8.80292 0.72937,0.0385 7.35761,-2.0542 14.72943,-4.65051 z"
         style="fill:#000000" />
    </g>
  </g>
</svg>
